<svg width="973" height="978" viewBox="0 0 973 978" fill="none" xmlns="http://www.w3.org/2000/svg">
<path fill-rule="evenodd" clip-rule="evenodd" d="M251.096 330.309L315.7 329.265C310.749 434.542 329.707 544.28 351.599 639.969L351.637 642.272L258.102 763.813L251.096 330.309Z" fill="#E30016"/>
<path fill-rule="evenodd" clip-rule="evenodd" d="M691.61 323.191L627.007 324.235C635.357 429.297 619.954 539.589 601.165 635.936L601.202 638.24L698.616 756.695L691.61 323.191Z" fill="#E30016"/>
<path fill-rule="evenodd" clip-rule="evenodd" d="M485.829 640.856L466.477 641.169L352.294 643.014C304.347 434.662 269.272 158.279 465.909 7.06457C667.333 151.841 641.2 429.226 600.012 639.011L485.829 640.856Z" fill="white"/>
<path fill-rule="evenodd" clip-rule="evenodd" d="M575.215 132.783L360.73 136.249C363.929 129.654 367.32 123.147 370.911 116.727L564.41 113.6C568.207 119.901 571.805 126.295 575.215 132.783Z" fill="#1B1918"/>
<path fill-rule="evenodd" clip-rule="evenodd" d="M468.61 174.205C488.497 173.884 507.698 181.476 521.989 195.311C536.279 209.147 544.487 228.093 544.809 247.981C545.048 262.812 540.885 277.381 532.844 289.846C524.804 302.311 513.248 312.111 499.637 318.008C486.027 323.905 470.973 325.634 456.38 322.976C441.787 320.317 428.311 313.391 417.654 303.073C406.997 292.756 399.639 279.51 396.511 265.01C393.383 250.511 394.624 235.409 400.078 221.615C405.532 207.822 414.954 195.955 427.153 187.516C439.351 179.077 453.778 174.445 468.61 174.205Z" fill="#1B1918"/>
</svg>
